<svg xmlns="http://www.w3.org/2000/svg" width="62" height="61.998" viewBox="0 0 62 61.998">
  <g id="image-_1_" data-name="image- (1)" transform="translate(-1.594 -1.621)" opacity="0.172">
    <path id="Path_1492" data-name="Path 1492" d="M62.623,35.652,53.271,13.78c-1.7-4-4.243-6.275-7.141-6.424-2.868-.149-5.647,1.853-7.769,5.677L32.684,23.222c-1.2,2.151-2.9,3.436-4.751,3.586-1.883.179-3.765-.807-5.289-2.749l-.657-.837c-2.121-2.659-4.751-3.944-7.44-3.675s-4.99,2.121-6.514,5.139L2.863,34.994A11.9,11.9,0,0,0,13.5,52.235H51.627a11.916,11.916,0,0,0,9.95-5.349A11.7,11.7,0,0,0,62.623,35.652Z" transform="translate(0 11.384)" fill="#b1b1b1"/>
    <path id="Path_1493" data-name="Path 1493" d="M13.689,21.82a10.1,10.1,0,1,0-10.1-10.1A10.1,10.1,0,0,0,13.689,21.82Z" transform="translate(3.968)" fill="#b1b1b1"/>
  </g>
</svg>
