<svg xmlns="http://www.w3.org/2000/svg" width="175.28" height="35.115" viewBox="0 0 175.28 35.115">
  <g id="Layer_x0020_1" transform="translate(-0.008 0.004)">
    <path id="Path_1424" data-name="Path 1424" d="M34.811,6.485a9.542,9.542,0,0,0-3.4-3.208A23.555,23.555,0,0,0,25.457.969a20.56,20.56,0,0,0-7.69-.876,8.66,8.66,0,0,0-6.311,3.943A1.234,1.234,0,0,0,13.5,5.424a6.156,6.156,0,0,1,4.19-2.82,17.112,17.112,0,0,1,7.143.744,22.02,22.02,0,0,1,5.083,1.9,7.369,7.369,0,0,1,2.8,2.523,7.273,7.273,0,0,1,.958,3.8,21.177,21.177,0,0,1-.836,5.535c-.133.514-.282,1.031-.447,1.546s-.347,1.032-.541,1.537a1.244,1.244,0,0,0-.074.279,1.239,1.239,0,0,0,1.044,1.394,1.2,1.2,0,0,0,.284.007H33.1a1.23,1.23,0,0,0,1.034-.774c.213-.555.412-1.119.594-1.685s.34-1.113.485-1.675a22.846,22.846,0,0,0,.918-6.565,9.413,9.413,0,0,0-1.251-4.569l-.074-.12ZM7.377,10.68l-1.01-.111A2.56,2.56,0,0,1,4.2,8.759l-.291-.974a.377.377,0,0,0-.147-.206h0a.379.379,0,0,0-.246-.063.37.37,0,0,0-.34.332L3.061,8.862a2.56,2.56,0,0,1-1.81,2.171l-.974.291a.374.374,0,0,0-.2.147h0a.376.376,0,0,0,.271.586l1.012.111a2.559,2.559,0,0,1,2.171,1.81l.291.974a.377.377,0,0,0,.147.206h0a.378.378,0,0,0,.246.063.369.369,0,0,0,.339-.332l.111-1.012A2.559,2.559,0,0,1,6.47,11.7l.974-.291a.377.377,0,0,0,.206-.147h0a.374.374,0,0,0-.269-.586h0Zm28.7,14.562-.626-.012a1.293,1.293,0,0,1-1.178-.813l-.233-.581a.512.512,0,0,0-.987.181l-.012.626a1.293,1.293,0,0,1-.813,1.178l-.581.233a.512.512,0,0,0,.181.987l.626.012a1.293,1.293,0,0,1,1.178.813l.233.581a.512.512,0,0,0,.987-.181l.012-.626a1.293,1.293,0,0,1,.813-1.178l.581-.233a.512.512,0,0,0-.181-.987ZM17.206,28.32Zm2.7-12.081a2.007,2.007,0,0,0-.579.525,1.149,1.149,0,1,1-1.845-1.369l.027-.036a4.292,4.292,0,0,1,5.991-.851l.039.031a1.146,1.146,0,0,1,.2,1.576l-.031.039a1.146,1.146,0,0,1-1.576.2l-.011-.008a2.015,2.015,0,0,0-2.215-.1ZM8.537,20.221l14.711-2.166a1.152,1.152,0,0,1,1.263.975l.005.038A8.581,8.581,0,0,1,7.532,21.53l-.005-.041A1.152,1.152,0,0,1,8.5,20.226l.036-.005Zm4,5.292a6.286,6.286,0,0,0,9.762-5l-12.225,1.8a6.273,6.273,0,0,0,2.464,3.195ZM9.615,17.754a2,2,0,0,0-.579.526,1.149,1.149,0,1,1-1.845-1.369l.027-.036a4.292,4.292,0,0,1,5.991-.851,1.146,1.146,0,0,1,.238,1.607l-.031.039a1.146,1.146,0,0,1-1.576.2l-.012-.009a2.015,2.015,0,0,0-2.214-.1ZM14.159,7.611a29.947,29.947,0,0,0-4.2.88,1.238,1.238,0,1,0,.592,2.391,27.4,27.4,0,0,1,3.959-.827c4.083-.587,6.876-.411,8.823.858s3.04,3.629,3.713,7.4l.38,2.655a11.814,11.814,0,0,1-.475,6.531,7.032,7.032,0,0,1-4.139,3.6,23.748,23.748,0,0,1-5.8,1.361,20.17,20.17,0,0,1-5.627-.049,6.176,6.176,0,0,1-4.348-2.865A17.141,17.141,0,0,1,4.964,22.8a24.557,24.557,0,0,1-.3-4.8c.085-1.484-2.341-2.153-2.452-.164a27.094,27.094,0,0,0,.311,5.312c.713,4.96,2.12,8.227,4.583,10.072S13.1,35.5,18.065,34.785s8.229-2.12,10.073-4.583,2.273-5.995,1.56-10.957c-.726-5.024-2.1-8.3-4.548-10.127S19.18,6.89,14.158,7.612Z" transform="translate(0 0)" fill="#0bb90b"/>
    <path id="Path_2723" data-name="Path 2723" d="M1693.156,132.339v2.016h-9.836v-2.016Zm-6.76,20.022V129.4c0-.052,0-.105,0-.158A4.616,4.616,0,0,1,1689.1,125a5.984,5.984,0,0,1,2.546-.57h.146a6.538,6.538,0,0,1,1.4.153,6.9,6.9,0,0,1,.961.3l-.677,2.034q-.266-.087-.644-.187a3.792,3.792,0,0,0-.864-.1h-.083c-.065,0-.132-.006-.2-.006a3.114,3.114,0,0,0-2.141.854,3.33,3.33,0,0,0-.831,2.2c0,.073,0,.146.007.219l-.011,22.465H1686.4Zm16.554.417-.159,0a8.109,8.109,0,0,1-4.42-1.311,8.881,8.881,0,0,1-3.109-3.645,12.267,12.267,0,0,1-1.126-5.131c0-.082,0-.17,0-.251s0-.174,0-.258a12.365,12.365,0,0,1,1.125-5.151,8.877,8.877,0,0,1,3.11-3.652,8.114,8.114,0,0,1,4.427-1.316h.3a8.085,8.085,0,0,1,4.424,1.318,8.9,8.9,0,0,1,3.109,3.654,12.314,12.314,0,0,1,1.129,5.151c0,.084,0,.171,0,.254s0,.168,0,.25a12.269,12.269,0,0,1-1.125,5.131,8.884,8.884,0,0,1-3.11,3.647,8.106,8.106,0,0,1-4.419,1.311l-.161,0h0Zm0-2.12.168,0a5.6,5.6,0,0,0,3.363-1.123,6.979,6.979,0,0,0,2.2-2.989,10.955,10.955,0,0,0,.752-3.983c0-.041,0-.084,0-.124s0-.084,0-.125a10.951,10.951,0,0,0-.754-3.993,7.085,7.085,0,0,0-2.2-3.007,5.557,5.557,0,0,0-3.364-1.135l-.163,0c-.053,0-.109,0-.162,0a5.558,5.558,0,0,0-3.364,1.134,7.069,7.069,0,0,0-2.2,3.008,10.927,10.927,0,0,0-.755,3.992c0,.041,0,.084,0,.124s0,.087,0,.128a10.909,10.909,0,0,0,.753,3.982,6.975,6.975,0,0,0,2.2,2.987,5.6,5.6,0,0,0,3.363,1.124l.167,0h0Zm20-18.318v2.016h-9.558v-2.016Zm-6.569-4.8h2.329V147.13c0,.066,0,.134,0,.2a3.813,3.813,0,0,0,.436,1.769,2.4,2.4,0,0,0,1.116,1,3.745,3.745,0,0,0,1.46.3h.076a4.351,4.351,0,0,0,.726-.061q.323-.06.567-.13l.5,2.1a6.391,6.391,0,0,1-.837.237,5.861,5.861,0,0,1-1.114.108l-.112,0a5.66,5.66,0,0,1-2.459-.562,4.633,4.633,0,0,1-2.69-4.245c0-.055,0-.112,0-.166V127.541Zm17.615,25.235-.16,0a8.107,8.107,0,0,1-4.419-1.311,8.876,8.876,0,0,1-3.106-3.649,12.277,12.277,0,0,1-1.127-5.133c0-.081,0-.166,0-.245s0-.173,0-.259a12.381,12.381,0,0,1,1.127-5.154,8.866,8.866,0,0,1,3.109-3.651,8.112,8.112,0,0,1,4.427-1.316h.152l.153,0a8.086,8.086,0,0,1,4.424,1.318,8.921,8.921,0,0,1,3.111,3.654,12.338,12.338,0,0,1,1.125,5.143c0,.087,0,.18,0,.266s0,.167,0,.249a12.28,12.28,0,0,1-1.125,5.128,8.892,8.892,0,0,1-3.11,3.65,8.108,8.108,0,0,1-4.42,1.311l-.159,0h0Zm0-2.12.168,0a5.6,5.6,0,0,0,3.363-1.123,6.981,6.981,0,0,0,2.2-2.989,10.926,10.926,0,0,0,.752-3.98c0-.041,0-.087,0-.127s0-.084,0-.125a10.951,10.951,0,0,0-.754-3.993,7.084,7.084,0,0,0-2.2-3.007,5.556,5.556,0,0,0-3.364-1.135l-.163,0c-.053,0-.108,0-.162,0a5.556,5.556,0,0,0-3.364,1.134,7.069,7.069,0,0,0-2.2,3.008,10.935,10.935,0,0,0-.755,3.992c0,.041,0,.084,0,.124s0,.087,0,.128a10.914,10.914,0,0,0,.753,3.982,6.977,6.977,0,0,0,2.2,2.987,5.6,5.6,0,0,0,3.363,1.123l.167,0h0Zm25.558-13.922-2.12.6a5.459,5.459,0,0,0-.883-1.623,4.087,4.087,0,0,0-1.5-1.16,5.352,5.352,0,0,0-2.112-.435l-.165,0c-.074,0-.151,0-.225,0a5.463,5.463,0,0,0-3.107.971,2.97,2.97,0,0,0-1.31,2.462v.026c0,.031,0,.063,0,.094a2.671,2.671,0,0,0,.895,1.995,6.488,6.488,0,0,0,2.757,1.265l3.024.747a7.565,7.565,0,0,1,3.783,1.942,4.665,4.665,0,0,1,1.26,3.188c0,.051,0,.1,0,.153,0,.023,0,.05,0,.074a5.04,5.04,0,0,1-.941,2.933,6.275,6.275,0,0,1-2.613,2.066,9.445,9.445,0,0,1-3.687.751l-.2,0c-.111,0-.224.007-.336.007a8.3,8.3,0,0,1-4.5-1.327,5.931,5.931,0,0,1-2.429-3.823l2.224-.556a4.464,4.464,0,0,0,1.686,2.7,5.534,5.534,0,0,0,3.055.921c.087,0,.176,0,.263-.006s.2.007.3.007a6.008,6.008,0,0,0,3.387-1.046,3.13,3.13,0,0,0,1.389-2.594c0-.021,0-.043,0-.065a2.815,2.815,0,0,0-.811-1.976,4.979,4.979,0,0,0-2.456-1.227l-3.274-.781a7.53,7.53,0,0,1-3.856-1.977,4.751,4.751,0,0,1-1.252-3.213c0-.047,0-.094,0-.141,0-.028,0-.059,0-.087a4.895,4.895,0,0,1,.9-2.831,6.029,6.029,0,0,1,2.48-1.979,8.588,8.588,0,0,1,3.437-.718h.154c.118-.006.24-.009.359-.009a7.128,7.128,0,0,1,4.043,1.258,6.877,6.877,0,0,1,2.373,3.423h0Zm5.9-11.07v26.7h-2.329v-26.7Zm4.353,26.7V132.339h2.33v20.022Zm1.182-23.463h-.027a1.713,1.713,0,0,1-1.2-.49,1.574,1.574,0,0,1-.513-1.162v-.017c0-.006,0-.012,0-.018a1.574,1.574,0,0,1,.51-1.16,1.71,1.71,0,0,1,1.2-.49h.053a1.714,1.714,0,0,1,1.2.49,1.574,1.574,0,0,1,.513,1.162v.034a1.575,1.575,0,0,1-.512,1.162,1.71,1.71,0,0,1-1.2.489h-.026Zm12.714,23.88-.151,0a7.322,7.322,0,0,1-4.168-1.3,8.556,8.556,0,0,1-2.889-3.635,13.325,13.325,0,0,1-1.037-5.154c0-.094,0-.194,0-.286s0-.178,0-.266a13.2,13.2,0,0,1,1.048-5.153,8.537,8.537,0,0,1,2.9-3.627,7.39,7.39,0,0,1,4.187-1.3l.145,0c.076,0,.154,0,.23,0a6.387,6.387,0,0,1,2.813.654,5.991,5.991,0,0,1,1.942,1.6,9.012,9.012,0,0,1,1.134,1.853h.208V125.665h2.329v26.7h-2.26v-3.719h-.278a9.175,9.175,0,0,1-1.152,1.875,6.04,6.04,0,0,1-1.961,1.61,6.394,6.394,0,0,1-2.818.654c-.075,0-.151,0-.225,0h0Zm.278-2.12.146,0a5.216,5.216,0,0,0,3.163-1.069,6.659,6.659,0,0,0,2.083-2.938,11.876,11.876,0,0,0,.724-4.077c0-.07,0-.142,0-.21s0-.143,0-.214a11.711,11.711,0,0,0-.716-4.028,6.509,6.509,0,0,0-2.083-2.894,5.3,5.3,0,0,0-3.167-1.052l-.154,0-.167,0a5.316,5.316,0,0,0-3.219,1.087,6.669,6.669,0,0,0-2.091,2.938,11.57,11.57,0,0,0-.711,3.993c0,.057,0,.119,0,.174s0,.112,0,.166a11.755,11.755,0,0,0,.719,4.042,6.832,6.832,0,0,0,2.1,2.976,5.238,5.238,0,0,0,3.22,1.107l.161,0h0Zm21.316,2.12c-.074,0-.152,0-.228,0a8.81,8.81,0,0,1-4.624-1.313,8.641,8.641,0,0,1-3.16-3.637,12.277,12.277,0,0,1-1.114-5.11c0-.081,0-.168,0-.247s0-.158,0-.235a12.439,12.439,0,0,1,1.116-5.146,8.983,8.983,0,0,1,3.091-3.689,7.964,7.964,0,0,1,4.42-1.34h.164a8.513,8.513,0,0,1,3.126.6,7.853,7.853,0,0,1,2.718,1.811,8.656,8.656,0,0,1,1.905,3.066,12.31,12.31,0,0,1,.7,4.1c0,.087,0,.18,0,.265v1.144h-15.641v-2.051h13.278c0-.039,0-.082,0-.122a7.6,7.6,0,0,0-.778-3.35,6.18,6.18,0,0,0-2.155-2.439,5.665,5.665,0,0,0-3.064-.9h-.214a5.717,5.717,0,0,0-3.247,1.013,6.89,6.89,0,0,0-2.26,2.678,8.424,8.424,0,0,0-.829,3.643v1.233c0,.07,0,.148,0,.22a9.757,9.757,0,0,0,.835,3.946,6.433,6.433,0,0,0,2.357,2.76,6.514,6.514,0,0,0,3.443.984l.163,0h.132a6.47,6.47,0,0,0,2.368-.449,5.386,5.386,0,0,0,1.808-1.191,5.322,5.322,0,0,0,1.114-1.643l2.208.712a6.594,6.594,0,0,1-1.495,2.33,7.637,7.637,0,0,1-2.585,1.712,9.166,9.166,0,0,1-3.381.648h-.169Z" transform="translate(-1638.125 -121.093)"/>
  </g>
</svg>
